<svg xmlns="http://www.w3.org/2000/svg" width="434.016" height="71.192" viewBox="0 0 434.016 71.192">
  <path d="M81.84-61.776,70.928,0H55.88l6.6-37.048L42.064,0H29.92L22.528-37.224,16.016,0H.968L11.88-61.776H29.656l9.856,42.768,24.64-42.768ZM104.192.7A24.141,24.141,0,0,1,92.928-1.848a18.263,18.263,0,0,1-7.612-7.216,21.315,21.315,0,0,1-2.684-10.824,29.915,29.915,0,0,1,3.96-15.224A28.535,28.535,0,0,1,97.5-45.892a31.006,31.006,0,0,1,15.488-3.916,24.068,24.068,0,0,1,11.308,2.6,18.775,18.775,0,0,1,7.7,7.26,21.044,21.044,0,0,1,2.728,10.824,29.592,29.592,0,0,1-4,15.268,28.543,28.543,0,0,1-11,10.692A31.532,31.532,0,0,1,104.192.7ZM106.3-12.232a10.691,10.691,0,0,0,6.644-2.244,14.975,14.975,0,0,0,4.576-5.808,17.7,17.7,0,0,0,1.628-7.436q0-4.4-2.376-6.776a8.113,8.113,0,0,0-5.984-2.376,10.455,10.455,0,0,0-6.644,2.244A14.887,14.887,0,0,0,99.7-28.776a18.626,18.626,0,0,0-1.584,7.568,9.091,9.091,0,0,0,2.288,6.644A7.9,7.9,0,0,0,106.3-12.232ZM162.36-14.08l16.9-35.024h16.1L169.224,0H150.568l-8.712-49.1h16.016Zm47.7-40.128a7.96,7.96,0,0,1-5.588-1.892,6.218,6.218,0,0,1-2.068-4.8,8.86,8.86,0,0,1,3.08-6.776,10.687,10.687,0,0,1,7.48-2.816A7.8,7.8,0,0,1,218.5-68.6a6.384,6.384,0,0,1,2.024,4.884,8.77,8.77,0,0,1-3.08,6.688A10.573,10.573,0,0,1,210.056-54.208Zm6.512,5.1L207.944,0H192.9l8.624-49.1Zm32.912-.7q9.5,0,15.092,5.148t5.588,14.036a27.656,27.656,0,0,1-.44,5.192,35.288,35.288,0,0,1-1.056,4.312H234.608a11.284,11.284,0,0,0-.088,1.672,7.79,7.79,0,0,0,2.112,5.9,7.8,7.8,0,0,0,5.632,2.024,9.6,9.6,0,0,0,8.624-4.752H266.9a27.3,27.3,0,0,1-10.3,12.232A28.228,28.228,0,0,1,240.592.7q-9.5,0-15.18-5.28T219.736-18.92a31.467,31.467,0,0,1,.528-5.632,31.651,31.651,0,0,1,5.456-13.376,28.026,28.026,0,0,1,10.3-8.8A29.681,29.681,0,0,1,249.48-49.808Zm5.456,21.032a14.474,14.474,0,0,0,.176-1.672,6.749,6.749,0,0,0-2.2-5.412,8.6,8.6,0,0,0-5.808-1.892,10.68,10.68,0,0,0-6.82,2.332,13.054,13.054,0,0,0-4.268,6.644Zm61.776-15.576q0,8.184-5.1,12.716T296.472-27.1h-13.2V0h-3.96V-61.776h17.16q10.208,0,15.224,4.708T316.712-44.352Zm-20.24,13.728q16.28,0,16.28-13.728,0-6.776-3.872-10.34t-12.408-3.564h-13.2v27.632ZM348.392.7a24.337,24.337,0,0,1-12.056-2.992,21.144,21.144,0,0,1-8.4-8.58A26.959,26.959,0,0,1,324.9-23.936a26.458,26.458,0,0,1,3.08-12.98,21.059,21.059,0,0,1,8.492-8.536,24.877,24.877,0,0,1,12.1-2.948,24.626,24.626,0,0,1,12.056,2.948,20.922,20.922,0,0,1,8.4,8.492,26.7,26.7,0,0,1,3.036,13.024,26.646,26.646,0,0,1-3.08,13.068,21.35,21.35,0,0,1-8.492,8.58A24.585,24.585,0,0,1,348.392.7Zm0-3.52a20.948,20.948,0,0,0,9.724-2.332,17.562,17.562,0,0,0,7.26-7.084,23.186,23.186,0,0,0,2.728-11.7,22.994,22.994,0,0,0-2.728-11.616,17.635,17.635,0,0,0-7.216-7.084,20.685,20.685,0,0,0-9.68-2.332,20.424,20.424,0,0,0-9.636,2.332,17.712,17.712,0,0,0-7.172,7.084,22.994,22.994,0,0,0-2.728,11.616,23.493,23.493,0,0,0,2.684,11.7,17.437,17.437,0,0,0,7.128,7.084A20.425,20.425,0,0,0,348.392-2.816ZM388.08-37.928a14.523,14.523,0,0,1,6.248-8.052q4.488-2.772,11.44-2.772v4.136h-1.32a17.334,17.334,0,0,0-11.7,4q-4.664,4-4.664,13.068V0h-3.96V-47.784h3.96Zm32.736-6.424V-12.76q0,5.28,1.936,7.26t6.864,1.98h5.368V0H429q-6.248,0-9.2-2.948t-2.948-9.812V-44.352H409.64v-3.432h7.216V-59.928h3.96v12.144h14.168v3.432Z" transform="translate(-0.968 70.488)" fill="#707070"/>
</svg>
